:SAMPLES-PER-SECOND 30
:FULLY-SPECIFIED
:DEGREES
246
root  -11.6537 33.5469 -4.0323 -135.07 4.66924 -179.896
RightUpLeg  -65.4073 -11.1134 7.9157
RightLeg  21.249 -4.75822 -1.50625
RightFoot  9.27514 0.102173 -0.757916
RightToes  -25.3542 -0.118075 -0.224033
Spine  12.2873 1.48316 1.71577
Spine1  23.6718 3.62062 2.40049
HEad  -13.492 -5.61706 -4.47883
LeftShoulder1  -1.94126e-019 -3.10601e-018 -2.51263e-017
LeftArm  -12.9168 -8.00087 -80.4607
LeftForeArm  21.641 -21.3833 -3.37272
LeftHand  -0.422143 -0.192069 8.86247
RightShoulder  -4.96962e-017 0 -2.36833e-017
RightArm  -21.0095 5.35763 69.4687
RightForeArm  41.9175 22.3099 2.57927
RightHand  -0.057906 -5.08352 -17.2532
LeftUpLeg  -66.7011 3.37108 0.869096
LeftLeg  23.7551 11.7392 4.24855
LeftFoot  11.3758 -0.235612 2.5268
LeftToes  -21.8163 2.14545e-006 -7.7278e-009
247
root  -11.6375 33.5448 -4.00793 -135.489 4.05028 -179.791
RightUpLeg  -64.9289 -11.5786 8.38488
RightLeg  21.1016 -4.76518 -1.49491
RightFoot  9.15002 0.102103 -0.750713
RightToes  -25.0085 -0.117918 -0.223864
Spine  12.0911 1.46368 1.92842
Spine1  23.3355 3.58084 2.73996
HEad  -13.939 -5.79041 -4.76576
LeftShoulder1  -1.94126e-019 -3.10601e-018 -2.51263e-017
LeftArm  -12.8913 -7.93544 -80.8714
LeftForeArm  21.6722 -21.5559 -3.40539
LeftHand  -0.43364 -0.311154 8.92255
RightShoulder  -4.96962e-017 0 -2.36833e-017
RightArm  -21.7111 5.27815 69.3733
RightForeArm  42.2436 22.0775 2.51994
RightHand  -0.0707139 -4.99644 -17.2665
LeftUpLeg  -66.2784 2.99165 1.39087
LeftLeg  23.5313 11.7411 4.19797
LeftFoot  11.4993 -0.24036 2.54383
LeftToes  -21.7399 2.14545e-006 -7.7278e-009
248
root  -11.6215 33.5429 -3.9582 -135.819 3.84821 -179.723
RightUpLeg  -64.5364 -11.6561 8.47331
RightLeg  20.8984 -4.85941 -1.50533
RightFoot  9.24785 0.10395 -0.770755
RightToes  -25.2201 -0.117796 -0.223729
Spine  11.753 1.4914 1.96917
Spine1  22.7082 3.63952 2.81892
HEad  -14.3398 -5.86984 -4.98242
LeftShoulder1  -1.94126e-019 -3.10601e-018 -2.51263e-017
LeftArm  -12.9818 -7.63271 -81.1026
LeftForeArm  21.5878 -21.6751 -3.43348
LeftHand  -0.441694 -0.367782 9.00252
RightShoulder  -4.96962e-017 0 -2.36833e-017
RightArm  -22.0482 4.9382 69.3162
RightForeArm  42.2477 21.9825 2.50167
RightHand  -0.0666564 -5.02541 -17.352
LeftUpLeg  -65.9337 3.06254 1.41657
LeftLeg  23.2697 11.5278 4.06431
LeftFoot  11.623 -0.24016 2.52083
LeftToes  -21.9974 2.14545e-006 -7.7278e-009
249
root  -11.5939 33.5429 -3.92616 -136.274 3.61305 -179.628
RightUpLeg  -63.9698 -11.695 8.50631
RightLeg  20.7092 -5.01654 -1.53555
RightFoot  9.29272 0.106052 -0.795467
RightToes  -25.7668 -0.117711 -0.22363
Spine  11.3823 1.50077 2.00012
Spine1  22.0169 3.66386 2.8776
HEad  -14.7188 -5.94617 -5.113
LeftShoulder1  -1.94126e-019 -3.10601e-018 -2.51263e-017
LeftArm  -13.0973 -7.30819 -81.2631
LeftForeArm  21.6867 -21.6205 -3.4175
LeftHand  -0.443806 -0.341435 9.08453
RightShoulder  -4.96962e-017 0 -2.36833e-017
RightArm  -22.3929 4.56455 69.3062
RightForeArm  42.2838 21.8312 2.47128
RightHand  -0.0631666 -5.05133 -17.5148
LeftUpLeg  -65.5294 3.23626 1.37986
LeftLeg  23.1741 11.1595 3.9157
LeftFoot  11.5547 -0.229209 2.42667
LeftToes  -22.2712 2.14545e-006 -7.7278e-009
250
root  -11.5757 33.547 -3.89762 -136.785 3.46712 -179.5
RightUpLeg  -63.3062 -11.8553 8.69471
RightLeg  20.3692 -4.92852 -1.47669
RightFoot  9.29729 0.10483 -0.774855
RightToes  -26.0466 -0.117667 -0.223572
Spine  10.9208 1.50406 1.98414
Spine1  21.158 3.69055 2.84103
HEad  -14.8898 -5.84701 -5.2347
LeftShoulder1  -1.94126e-019 -3.10601e-018 -2.51263e-017
LeftArm  -13.2523 -6.95206 -81.3408
LeftForeArm  21.6773 -21.3422 -3.3627
LeftHand  -0.437858 -0.221076 9.14538
RightShoulder  -4.96962e-017 0 -2.36833e-017
RightArm  -22.2742 4.13073 69.3225
RightForeArm  42.0393 21.6729 2.45248
RightHand  -0.044631 -5.17593 -17.5524
LeftUpLeg  -64.9677 3.49451 1.31368
LeftLeg  22.9633 10.8262 3.75616
LeftFoot  11.3688 -0.214744 2.3187
LeftToes  -23.1405 2.14545e-006 -7.7278e-009
251
root  -11.5592 33.5711 -3.89185 -137.315 3.48106 -179.361
RightUpLeg  -62.5341 -11.9561 8.84576
RightLeg  19.899 -4.76516 -1.38528
RightFoot  9.36294 0.102608 -0.743322
RightToes  -26.2124 -0.117659 -0.223572
Spine  10.3163 1.53381 1.90074
Spine1  20.0289 3.76961 2.70807
HEad  -14.8597 -5.69601 -5.4063
LeftShoulder1  -1.94126e-019 -3.10601e-018 -2.51263e-017
LeftArm  -13.3479 -6.46034 -81.3911
LeftForeArm  21.6309 -20.8917 -3.27599
LeftHand  -0.432794 -0.0772693 9.26525
RightShoulder  -4.96962e-017 0 -2.36833e-017
RightArm  -22.4527 3.55006 69.5346
RightForeArm  42.1354 21.4602 2.40782
RightHand  -0.0253888 -5.30467 -17.5796
LeftUpLeg  -64.2936 3.73444 1.32918
LeftLeg  22.6974 10.7041 3.65929
LeftFoot  11.2639 -0.208556 2.27618
LeftToes  -24.2017 2.14545e-006 -7.7278e-009
252
root  -11.5432 33.6067 -3.96083 -138.203 3.54559 -179.269
RightUpLeg  -61.2746 -11.9695 8.65543
RightLeg  19.5021 -4.79921 -1.35901
RightFoot  9.31717 0.101424 -0.731178
RightToes  -26.4099 -0.117679 -0.223641
Spine  9.68884 1.54288 1.77523
Spine1  18.8577 3.82848 2.46662
HEad  -14.7882 -5.44367 -5.49574
LeftShoulder1  -1.94126e-019 -3.10601e-018 -2.51263e-017
LeftArm  -13.3659 -5.78109 -81.3309
LeftForeArm  21.4976 -20.5717 -3.21983
LeftHand  -0.42034 0.0494544 9.20195
RightShoulder  -4.96962e-017 0 -2.36833e-017
RightArm  -22.5009 2.7444 69.8991
RightForeArm  42.1591 21.3917 2.3938
RightHand  -0.0314463 -5.26422 -17.5973
LeftUpLeg  -63.1744 3.88825 1.38187
LeftLeg  22.5349 10.6961 3.62304
LeftFoot  11.0872 -0.202431 2.24701
LeftToes  -25.0041 2.14545e-006 -7.7278e-009
253
root  -11.5195 33.6478 -4.09626 -139.567 3.68449 -179.179
RightUpLeg  -59.3985 -11.7372 8.02502
RightLeg  19.1742 -5.25152 -1.45397
RightFoot  9.16715 0.103725 -0.774606
RightToes  -26.4653 -0.117724 -0.223775
Spine  9.05467 1.5831 1.61472
Spine1  17.6663 3.95028 2.16764
HEad  -14.5966 -5.20825 -5.51095
LeftShoulder1  -1.94126e-019 -3.10601e-018 -2.51263e-017
LeftArm  -12.8881 -4.8336 -81.1576
LeftForeArm  21.4311 -20.4869 -3.20657
LeftHand  -0.415999 0.170357 9.3071
RightShoulder  -4.96962e-017 0 -2.36833e-017
RightArm  -22.3306 1.59415 70.3202
RightForeArm  42.2092 21.4901 2.41009
RightHand  -0.0318346 -5.26153 -17.5195
LeftUpLeg  -61.4893 4.13936 1.3926
LeftLeg  22.4253 10.6036 3.56974
LeftFoot  10.7429 -0.188834 2.16969
LeftToes  -25.5508 2.14545e-006 -7.7278e-009
254
root  -11.4865 33.7073 -4.3081 -141.329 3.78886 -179.095
RightUpLeg  -57.0078 -11.6728 7.43562
RightLeg  18.8323 -5.54401 -1.49889
RightFoot  8.96938 0.103237 -0.785054
RightToes  -26.6726 -0.117795 -0.223969
Spine  8.4369 1.58527 1.49125
Spine1  16.5131 3.99224 1.92779
HEad  -14.5542 -4.88935 -5.48701
LeftShoulder1  -1.94126e-019 -3.10601e-018 -2.51263e-017
LeftArm  -12.6778 -3.81496 -81.0714
LeftForeArm  21.6197 -20.3999 -3.17992
LeftHand  -0.413547 0.144795 9.20956
RightShoulder  -4.96962e-017 0 -2.36833e-017
RightArm  -22.0072 0.381297 70.7221
RightForeArm  42.252 21.5535 2.42012
RightHand  -0.0271123 -5.2932 -17.5194
LeftUpLeg  -59.2357 4.33067 1.50017
LeftLeg  22.2303 10.5455 3.51084
LeftFoot  10.3934 -0.176308 2.0999
LeftToes  -26.15 2.14545e-006 -7.7278e-009
255
root  -11.4671 33.7745 -4.62141 -143.747 3.93193 -179.2
RightUpLeg  -53.9359 -11.9077 6.60927
RightLeg  18.6725 -5.65709 -1.51234
RightFoot  8.60157 0.0989248 -0.748928
RightToes  -26.9737 -0.117888 -0.224216
Spine  7.93251 1.52157 1.34795
Spine1  15.5537 3.85585 1.71907
HEad  -14.6836 -4.69624 -5.45367
LeftShoulder1  -1.94126e-019 -3.10601e-018 -2.51263e-017
LeftArm  -12.7297 -2.65751 -81.112
LeftForeArm  22.0946 -20.7663 -3.23155
LeftHand  -0.403255 0.0924683 8.89681
RightShoulder  -4.96962e-017 0 -2.36833e-017
RightArm  -22.1549 -0.904219 71.1255
RightForeArm  42.6872 21.5807 2.4054
RightHand  -0.0556599 -5.1007 -17.4228
LeftUpLeg  -56.1124 4.24717 1.61193
LeftLeg  21.9649 10.7031 3.50813
LeftFoot  10.0527 -0.168024 2.07178
LeftToes  -26.7472 2.14545e-006 -7.7278e-009
